<?xml version="1.0" standalone="no"?><!DOCTYPE svg PUBLIC "-//W3C//DTD SVG 1.1//EN" "http://www.w3.org/Graphics/SVG/1.1/DTD/svg11.dtd"><svg t="1748853486166" class="icon" viewBox="0 0 1024 1024" version="1.1" xmlns="http://www.w3.org/2000/svg" p-id="6388" xmlns:xlink="http://www.w3.org/1999/xlink" width="200" height="200"><path d="M873.472 318.634667a32 32 0 0 1 45.056 45.397333C798.122667 483.584 662.186667 544 512 544c-150.186667 0-286.122667-60.416-406.528-179.968a32 32 0 0 1 45.056-45.397333C259.413333 426.666667 379.392 480 512 480c132.608 0 252.629333-53.333333 361.472-161.365333z" fill="#515151" p-id="6389"></path><path d="M790.613333 446.72a32 32 0 0 0-48.341333 41.642667l3.114667 3.584 107.093333 107.093333a32 32 0 0 0 48.341333-41.642667l-3.114666-3.584-107.093334-107.093333zM233.386667 446.72a32 32 0 0 1 48.341333 41.642667l-3.114667 3.584-107.008 107.008a32 32 0 0 1-48.341333-41.642667l3.114667-3.584L233.386667 446.72z" fill="#515151" p-id="6390"></path><path d="M395.605333 504.234667a32 32 0 0 1 62.890667 11.264l-0.768 4.266666-42.666667 170.666667a32 32 0 0 1-62.890666-11.264l0.768-4.266667 42.666666-170.666666zM628.394667 504.234667a32 32 0 0 0-62.890667 11.264l0.768 4.266666 42.666667 170.666667a32 32 0 0 0 62.890666-11.264l-0.768-4.266667-42.666666-170.666666z" fill="#515151" p-id="6391"></path></svg>