<?xml version="1.0" standalone="no"?><!DOCTYPE svg PUBLIC "-//W3C//DTD SVG 1.1//EN" "http://www.w3.org/Graphics/SVG/1.1/DTD/svg11.dtd"><svg t="1748621731837" class="icon" viewBox="0 0 1024 1024" version="1.1" xmlns="http://www.w3.org/2000/svg" p-id="3930" xmlns:xlink="http://www.w3.org/1999/xlink" width="200" height="200"><path d="M841.142857 365.714286a36.571429 36.571429 0 0 1 35.986286 29.988571L877.714286 402.285714v512a109.714286 109.714286 0 0 1-99.181715 109.202286L768 1024h-512a109.714286 109.714286 0 0 1-109.202286-99.181714L146.285714 914.285714v-512a36.571429 36.571429 0 0 1 72.557715-6.582857L219.428571 402.285714v512a36.571429 36.571429 0 0 0 29.988572 35.986286L256 950.857143h512a36.571429 36.571429 0 0 0 35.986286-29.988572L804.571429 914.285714v-512a36.571429 36.571429 0 0 1 36.571428-36.571428z m-438.857143 73.142857a36.571429 36.571429 0 0 1 36.571429 36.571428v292.571429a36.571429 36.571429 0 1 1-73.142857 0v-292.571429a36.571429 36.571429 0 0 1 36.571428-36.571428z m219.428572 0a36.571429 36.571429 0 0 1 36.571428 36.571428v292.571429a36.571429 36.571429 0 1 1-73.142857 0v-292.571429a36.571429 36.571429 0 0 1 36.571429-36.571428z m-45.202286-365.714286c38.034286 0 73.142857 19.748571 93.110857 51.638857l5.046857 8.996572L717.458286 219.428571H914.285714a36.571429 36.571429 0 1 1 0 73.142858h-804.571428a36.571429 36.571429 0 0 1 0-73.142858h196.754285l42.861715-85.577142a109.714286 109.714286 0 0 1 87.844571-60.196572L447.488 73.142857h129.024z m0 73.142857H447.488a36.571429 36.571429 0 0 0-29.110857 14.409143l-3.657143 5.851429L388.315429 219.428571h247.442285l-26.477714-52.955428a36.571429 36.571429 0 0 0-25.892571-19.529143L576.512 146.285714z" fill="#707070" p-id="3931"></path></svg>