<?xml version="1.0" standalone="no"?><!DOCTYPE svg PUBLIC "-//W3C//DTD SVG 1.1//EN" "http://www.w3.org/Graphics/SVG/1.1/DTD/svg11.dtd"><svg t="1748853183817" class="icon" viewBox="0 0 1024 1024" version="1.1" xmlns="http://www.w3.org/2000/svg" p-id="5450" xmlns:xlink="http://www.w3.org/1999/xlink" width="200" height="200"><path d="M787.2 953.6H236.8c-70.4 0-128-57.6-128-128V198.4c0-70.4 57.6-128 128-128h544c70.4 0 128 57.6 128 128v620.8c6.4 70.4-51.2 134.4-121.6 134.4zM236.8 128c-38.4 0-70.4 32-70.4 70.4v620.8c0 38.4 32 70.4 70.4 70.4h544c38.4 0 70.4-32 70.4-70.4V198.4c0-38.4-32-70.4-70.4-70.4h-544z" p-id="5451" fill="#515151"></path><path d="M396.8 403.2h89.6c12.8 0 32 12.8 32 32 0 12.8-12.8 32-32 32h-89.6c-19.2-6.4-32-19.2-32-38.4s12.8-25.6 32-25.6z m0 179.2h236.8c12.8 0 32 12.8 32 32 0 12.8-12.8 32-32 32H396.8c-12.8 0-32-12.8-32-32s12.8-32 32-32z" p-id="5452" fill="#515151"></path></svg>