<?xml version="1.0" standalone="no"?><!DOCTYPE svg PUBLIC "-//W3C//DTD SVG 1.1//EN" "http://www.w3.org/Graphics/SVG/1.1/DTD/svg11.dtd"><svg t="1748619353865" class="icon" viewBox="0 0 1024 1024" version="1.1" xmlns="http://www.w3.org/2000/svg" p-id="2637" xmlns:xlink="http://www.w3.org/1999/xlink" width="200" height="200"><path d="M136.192 386.56c-69.12 0-125.44 56.32-125.44 125.44s56.32 125.44 125.44 125.44 125.44-56.32 125.44-125.44S205.312 386.56 136.192 386.56zM512 386.56c-69.12 0-125.44 56.32-125.44 125.44s56.32 125.44 125.44 125.44 125.44-56.32 125.44-125.44S581.12 386.56 512 386.56zM887.808 386.56c-69.12 0-125.44 56.32-125.44 125.44s56.32 125.44 125.44 125.44 125.44-56.32 125.44-125.44S956.416 386.56 887.808 386.56z" p-id="2638" fill="#515151"></path></svg>