<?xml version="1.0" standalone="no"?><!DOCTYPE svg PUBLIC "-//W3C//DTD SVG 1.1//EN" "http://www.w3.org/Graphics/SVG/1.1/DTD/svg11.dtd"><svg t="1748852973248" class="icon" viewBox="0 0 1024 1024" version="1.1" xmlns="http://www.w3.org/2000/svg" p-id="2623" xmlns:xlink="http://www.w3.org/1999/xlink" width="200" height="200"><path d="M700.741818 633.018182c123.229091 0 224.581818 98.141091 229.934546 222.626909l0.232727 10.100364V930.909091h-92.066909v-65.163636c0-73.937455-57.018182-135.074909-130.001455-139.403637l-8.098909-0.232727H323.258182c-73.122909 0-133.585455 57.623273-137.867637 131.444364l-0.232727 8.192V930.909091H93.090909v-65.163636c0-124.602182 97.047273-227.095273 220.16-232.494546l10.007273-0.232727h377.483636zM512 93.090909c114.408727 0 207.150545 93.789091 207.150545 209.454546S626.408727 512 512 512s-207.150545-93.789091-207.150545-209.454545S397.591273 93.090909 512 93.090909z m0 93.090909c-41.122909 0-79.127273 22.178909-99.677091 58.181818a117.480727 117.480727 0 0 0 0 116.363637A114.850909 114.850909 0 0 0 512 418.909091c63.557818 0 115.083636-52.107636 115.083636-116.363636S575.557818 186.181818 512 186.181818z" fill="#515151" p-id="2624"></path></svg>